<?xml version="1.0" standalone="no"?>
<!DOCTYPE svg PUBLIC "-//W3C//DTD SVG 20010904//EN"
 "http://www.w3.org/TR/2001/REC-SVG-20010904/DTD/svg10.dtd">
<svg version="1.0" xmlns="http://www.w3.org/2000/svg"
 width="384.000000pt" height="384.000000pt" viewBox="0 0 384.000000 384.000000"
 preserveAspectRatio="xMidYMid meet">

<g transform="translate(0.000000,384.000000) scale(0.100000,-0.100000)"
fill="#000000" stroke="none">
<path d="M2467 3359 c-9 -6 -17 -20 -17 -33 0 -21 -6 -23 -92 -34 -51 -7 -123
-14 -161 -16 -37 -3 -71 -8 -76 -10 -5 -3 -29 -7 -55 -7 -25 -1 -46 -6 -46
-10 0 -5 -11 -11 -25 -15 -28 -7 -115 -98 -115 -120 0 -8 -11 -14 -27 -14 -14
0 -60 -20 -102 -44 -80 -47 -156 -76 -196 -76 -37 0 -37 -15 1 -29 18 -7 34
-17 34 -22 0 -6 4 -8 9 -5 5 4 38 0 73 -6 57 -12 89 -13 201 -9 26 1 46 9 64
27 28 28 75 44 128 43 25 0 19 -4 -31 -23 -33 -12 -76 -33 -95 -46 -53 -37
-101 -80 -89 -80 6 0 10 -10 8 -22 -2 -17 -19 -30 -62 -50 -32 -15 -62 -26
-66 -23 -5 3 -10 1 -12 -3 -4 -12 -122 -52 -151 -52 -12 0 -51 -8 -86 -18
l-63 -18 33 -11 c19 -6 67 -23 107 -37 41 -14 85 -26 98 -26 13 0 24 -3 24 -7
0 -5 10 -8 23 -9 12 0 72 -3 132 -7 139 -7 161 -3 174 34 10 30 40 43 82 37
18 -2 11 -10 -43 -45 -36 -23 -82 -48 -101 -57 -20 -8 -42 -25 -50 -38 -45
-69 -20 -310 34 -339 14 -7 19 -21 19 -49 0 -53 -39 -109 -98 -139 -25 -13
-57 -36 -71 -52 -14 -16 -30 -29 -35 -29 -5 0 2 12 16 28 37 40 40 59 27 136
-10 54 -10 71 -1 74 7 2 12 8 12 13 0 6 -5 7 -11 4 -7 -5 -9 22 -7 88 2 52 0
93 -3 91 -7 -4 -38 27 -37 39 0 5 -4 12 -8 15 -4 4 -4 1 0 -5 10 -18 2 -16
-54 12 -60 30 -101 31 -160 3 -25 -12 -49 -22 -55 -22 -5 -1 -10 -7 -10 -14 0
-7 -5 -16 -11 -20 -19 -12 -37 -55 -51 -121 -7 -35 -31 -100 -53 -144 -47 -93
-51 -134 -16 -166 l25 -23 -41 -32 c-57 -43 -77 -74 -98 -147 -10 -35 -19 -54
-19 -42 -2 45 41 136 85 180 24 24 44 45 44 47 0 2 -16 11 -36 21 -43 20 -52
41 -30 63 15 15 18 15 26 2 8 -13 10 -12 10 3 0 9 -4 17 -8 17 -5 0 -13 21
-18 47 -12 60 -50 92 -89 75 -41 -19 -63 -104 -35 -138 26 -31 -21 -91 -62
-80 -7 1 -9 1 -5 -2 5 -2 -1 -14 -12 -26 -14 -15 -24 -50 -35 -118 -26 -161
-28 -154 67 -245 232 -223 507 -334 827 -334 204 0 368 39 543 129 87 44 186
110 238 159 23 21 26 29 19 56 -17 65 -132 978 -124 986 2 2 6 2 8 0 7 -6 69
-446 107 -744 17 -137 32 -251 33 -253 6 -5 122 125 154 173 31 45 33 55 28
104 -5 54 -15 68 -71 96 -23 12 -32 52 -16 68 16 16 13 73 -4 91 -22 22 -52
29 -74 17 -14 -8 -21 -8 -24 2 -5 13 -3 -56 6 -206 3 -49 4 -87 2 -85 -3 3
-10 57 -65 481 -25 199 -26 221 -13 260 24 69 27 137 8 187 -9 25 -18 53 -19
62 -1 10 -6 21 -11 25 -4 5 -5 2 -1 -4 9 -17 1 -16 -33 1 -27 14 -28 19 -45
154 -10 77 -15 150 -11 163 4 16 3 19 -3 11 -9 -14 -32 141 -32 222 0 50 -21
72 -53 55z m18 -304 c9 -66 18 -147 20 -180 3 -33 7 -80 10 -105 3 -35 2 -41
-6 -27 -6 10 -8 24 -5 32 2 7 -1 19 -8 25 -33 26 -53 197 -40 336 4 49 9 78
11 64 2 -14 10 -79 18 -145z m-233 110 c9 -3 18 -16 21 -27 3 -11 10 -17 16
-13 19 11 12 -13 -11 -39 -35 -40 -78 -43 -116 -11 -18 15 -32 34 -32 42 0 14
3 13 23 -3 12 -10 17 -12 10 -5 -9 11 -9 19 -1 35 19 36 40 41 90 21z m6 -316
c2 -5 9 -9 16 -9 19 0 12 -66 -9 -87 -9 -9 -30 -16 -45 -16 -72 0 -88 99 -20
126 18 6 54 -2 58 -14z m376 -141 c8 -13 17 -42 21 -66 8 -48 -3 -145 -15
-137 -4 3 -6 14 -3 26 5 18 2 21 -23 19 -46 -3 -54 -1 -54 15 0 8 9 15 19 15
11 0 23 5 26 10 4 6 -6 9 -27 8 -40 -4 -48 25 -8 30 42 6 47 22 7 22 -26 0
-37 4 -37 15 0 9 9 15 24 15 14 0 28 5 31 10 4 6 -5 10 -19 10 -14 0 -26 4
-26 8 0 31 64 30 84 0z m-114 -42 c0 -17 -14 -29 -23 -20 -8 8 3 34 14 34 5 0
9 -6 9 -14z m-87 -36 c32 0 37 -3 37 -22 0 -13 11 -42 25 -65 22 -40 23 -47
13 -103 -7 -34 -16 -57 -21 -53 -6 3 -7 1 -3 -6 12 -20 -49 -185 -65 -175 -5
3 -6 -2 -3 -10 4 -11 0 -16 -10 -16 -9 0 -19 -7 -22 -15 -4 -8 -11 -12 -17 -8
-6 3 -7 1 -3 -6 15 -24 -7 -52 -65 -81 -50 -26 -60 -28 -65 -15 -3 8 -10 12
-15 9 -15 -9 -10 8 9 29 15 17 17 39 15 173 -3 230 -39 350 -107 356 -11 1 20
5 69 9 50 3 113 5 140 3 28 -2 67 -4 88 -4z m-243 -100 c22 -81 23 -100 7
-100 -19 0 -29 24 -15 38 8 8 8 15 1 24 -6 7 -13 27 -16 43 -3 17 -9 39 -12
50 -7 20 -7 20 9 0 9 -11 21 -36 26 -55z m-16 -52 c-7 -11 -51 -10 -58 1 -3 5
10 9 28 8 19 0 33 -5 30 -9z m16 -81 c35 -18 38 -45 6 -57 -34 -13 -33 -38 2
-42 32 -4 37 -23 27 -115 -8 -81 -21 -93 -94 -93 -90 0 -122 9 -140 41 -9 16
-24 29 -33 29 -23 0 -48 38 -48 72 0 35 13 42 35 18 31 -34 32 -32 51 91 6 38
2 36 99 64 25 8 72 4 95 -8z m395 -183 c19 -147 0 -217 -54 -199 -27 8 -36 45
-23 87 6 18 20 77 32 131 12 54 24 96 26 94 3 -2 11 -53 19 -113z m-878 79
c14 -9 32 -32 39 -50 18 -41 17 -46 -1 -39 -17 6 -48 -21 -40 -35 4 -5 17 -9
31 -9 22 0 24 -4 24 -49 0 -57 -23 -131 -47 -148 -26 -20 -76 -15 -125 11 -41
22 -45 22 -41 6 3 -10 17 -33 32 -51 23 -27 35 -33 65 -32 35 1 36 0 36 -37 0
-57 -25 -110 -53 -110 -58 0 -136 93 -123 146 3 13 9 35 12 49 10 40 -4 92
-26 98 -34 9 -60 97 -29 97 5 0 9 -11 9 -24 0 -14 5 -28 10 -31 6 -3 10 0 10
8 0 8 6 17 14 20 8 3 20 25 28 49 11 34 24 48 57 66 23 13 52 37 63 53 26 34
22 33 55 12z m48 -113 c3 -6 -1 -7 -9 -4 -18 7 -21 14 -7 14 6 0 13 -4 16 -10z
m707 -178 l33 -34 -32 16 c-29 15 -49 7 -23 -9 6 -3 10 -11 10 -17 0 -6 -11
-1 -25 12 -33 31 -47 82 -33 122 l11 32 13 -44 c7 -23 28 -58 46 -78z m-433
34 c18 -21 63 -29 96 -16 15 6 30 9 32 6 5 -5 -106 -126 -116 -126 -4 0 -14
34 -23 75 -15 74 -12 89 11 61z m339 -63 c6 -43 9 -79 7 -81 -2 -2 -12 13 -23
35 -23 44 -22 46 -43 -76 -6 -36 -20 -83 -31 -105 -34 -68 -105 -161 -155
-206 l-48 -42 -7 48 c-3 27 -7 92 -8 144 l-2 95 -13 -48 c-20 -72 -25 -68 -18
14 4 59 10 79 29 99 22 23 27 23 66 13 24 -6 50 -15 59 -18 13 -5 20 4 32 42
8 26 18 60 21 75 4 18 22 35 58 57 29 17 56 31 59 31 3 0 11 -35 17 -77z
m-155 37 c5 -19 -15 -125 -25 -136 -3 -2 -16 5 -31 16 -14 11 -30 20 -36 20
-18 0 -13 10 29 57 22 25 40 50 40 54 0 17 18 9 23 -11z m-208 -104 c17 -30
17 -30 0 -14 -16 15 -21 15 -47 2 -32 -16 -35 -9 -12 24 9 13 14 33 10 45 -5
21 -4 21 13 -2 11 -14 27 -38 36 -55z m-630 -15 c5 -10 4 -12 -4 -7 -18 12
-31 53 -24 73 6 14 9 9 13 -17 4 -20 10 -42 15 -49z m1248 -5 c5 -33 4 -36 -6
-21 -8 10 -23 16 -38 13 -21 -3 -24 -8 -24 -46 0 -33 -5 -46 -20 -54 -35 -19
-60 -52 -61 -83 -2 -44 -26 -152 -31 -138 -2 6 1 38 6 69 6 32 11 73 11 91 0
38 25 83 47 83 8 0 11 5 8 10 -3 6 4 25 17 42 12 18 23 39 25 46 1 8 11 23 22
33 12 11 21 25 22 32 1 17 14 -30 22 -77z m-1125 -50 c14 -39 83 -106 110
-106 15 -1 15 -2 -3 -16 -11 -9 -28 -20 -38 -26 -16 -8 -18 -7 -12 11 8 25
-18 39 -38 22 -10 -7 -17 -7 -24 0 -6 6 -16 8 -22 5 -16 -10 -14 -41 3 -55 10
-8 13 -23 9 -47 -4 -22 -2 -34 6 -34 6 0 11 12 12 28 l1 27 13 -30 c12 -26 20
-27 16 -2 0 4 3 7 8 7 5 0 21 -24 37 -54 27 -53 28 -55 10 -74 -14 -17 -23
-19 -44 -11 -48 16 -81 52 -122 129 -37 70 -39 73 -40 41 0 -54 -41 -212 -56
-218 -7 -3 -30 3 -51 14 -44 21 -44 14 -8 177 14 60 32 118 42 128 9 10 48 35
86 55 38 20 71 42 74 50 8 22 18 15 31 -21z m249 -4 l32 -27 -23 -58 c-44
-107 -132 -235 -143 -209 -3 7 -20 36 -39 63 -19 28 -34 52 -34 54 0 2 21 14
47 27 55 27 101 86 109 140 4 21 9 38 13 38 3 0 21 -13 38 -28z m886 -51 c-9
-12 -23 18 -16 35 6 17 8 17 13 -6 4 -14 5 -27 3 -29z m-783 -30 c0 -42 -63
-213 -99 -268 -56 -86 -68 -87 -22 -1 44 81 81 194 81 242 0 22 -9 6 -31 -59
-31 -92 -57 -143 -85 -166 -10 -8 -1 17 19 56 19 39 47 109 62 157 l27 87 24
-16 c13 -8 24 -23 24 -32z m29 -30 c6 -10 26 -77 45 -149 l34 -131 -30 -10
c-17 -6 -33 -11 -35 -11 -2 0 -1 24 3 53 3 35 0 70 -11 107 -18 57 -31 160
-21 160 3 0 10 -8 15 -19z m-385 -27 c4 -10 1 -14 -6 -12 -15 5 -23 28 -10 28
5 0 13 -7 16 -16z m787 -108 c-43 -89 -112 -171 -170 -201 -40 -20 -39 -19 44
81 35 43 86 108 112 145 27 37 50 65 52 63 2 -1 -15 -41 -38 -88z m-1094 -8
c-3 -7 -5 -2 -5 12 0 14 2 19 5 13 2 -7 2 -19 0 -25z m623 -39 c-22 -58 -79
-163 -85 -157 -2 2 18 48 45 103 28 54 50 106 51 114 0 9 3 11 5 5 3 -6 -4
-35 -16 -65z m44 24 c-6 -38 -52 -128 -60 -120 -2 2 7 28 21 58 14 30 25 61
25 70 0 15 8 29 17 29 2 0 1 -17 -3 -37z m80 -220 c13 -71 16 -103 12 -103 -3
0 -10 18 -16 41 -6 22 -20 49 -30 59 -13 13 -15 20 -7 24 26 10 36 5 41 -21z"/>
<path d="M2230 2499 c0 -5 5 -7 10 -4 6 3 10 8 10 11 0 2 -4 4 -10 4 -5 0 -10
-5 -10 -11z"/>
<path d="M2320 2266 c0 -2 7 -7 16 -10 8 -3 12 -2 9 4 -6 10 -25 14 -25 6z"/>
<path d="M2044 2328 c-5 -8 -2 -9 10 -5 14 5 17 3 12 -8 -4 -12 2 -15 28 -15
31 0 53 19 39 34 -11 11 -82 6 -89 -6z"/>
<path d="M2143 2243 c-22 -8 -14 -23 11 -23 13 0 29 7 36 15 10 13 9 15 -11
14 -13 0 -30 -3 -36 -6z"/>
<path d="M1927 2220 c3 -11 9 -20 14 -20 11 0 11 3 3 24 -9 23 -23 20 -17 -4z"/>
<path d="M2130 2190 c-8 -5 -11 -12 -8 -15 10 -10 69 5 62 16 -7 12 -35 11
-54 -1z"/>
<path d="M2150 2150 c0 -5 7 -10 15 -10 8 0 15 5 15 10 0 6 -7 10 -15 10 -8 0
-15 -4 -15 -10z"/>
<path d="M1593 2199 c-32 -12 -29 -21 5 -14 25 6 26 5 9 -8 -18 -15 -18 -15 0
-19 27 -6 51 2 58 19 3 9 4 17 3 18 -12 9 -57 12 -75 4z"/>
<path d="M1683 2088 c2 -7 10 -13 17 -13 7 0 15 6 18 13 2 7 -5 12 -18 12 -13
0 -20 -5 -17 -12z"/>
<path d="M1664 2045 c-18 -13 -17 -14 19 -15 38 0 50 13 21 24 -20 8 -17 8
-40 -9z"/>
<path d="M1685 2010 c-3 -5 1 -10 10 -10 9 0 13 5 10 10 -3 6 -8 10 -10 10 -2
0 -7 -4 -10 -10z"/>
<path d="M2165 3350 c-3 -6 1 -7 9 -4 18 7 21 14 7 14 -6 0 -13 -4 -16 -10z"/>
<path d="M1603 3055 c0 -8 4 -12 9 -9 5 3 6 10 3 15 -9 13 -12 11 -12 -6z"/>
<path d="M1505 3009 c-4 -6 -5 -12 -2 -15 2 -3 7 2 10 11 7 17 1 20 -8 4z"/>
<path d="M1341 2944 c0 -11 3 -14 6 -6 3 7 2 16 -1 19 -3 4 -6 -2 -5 -13z"/>
<path d="M1505 2900 c-3 -5 -1 -10 4 -10 6 0 11 5 11 10 0 6 -2 10 -4 10 -3 0
-8 -4 -11 -10z"/>
<path d="M1160 2896 c0 -2 8 -10 18 -17 15 -13 16 -12 3 4 -13 16 -21 21 -21
13z"/>
<path d="M1865 2891 c-6 -11 9 -23 19 -14 9 9 7 23 -3 23 -6 0 -12 -4 -16 -9z"/>
<path d="M1291 2844 c0 -11 3 -14 6 -6 3 7 2 16 -1 19 -3 4 -6 -2 -5 -13z"/>
<path d="M1185 2840 c3 -5 8 -10 11 -10 2 0 4 5 4 10 0 6 -5 10 -11 10 -5 0
-7 -4 -4 -10z"/>
<path d="M1400 2839 c0 -5 5 -7 10 -4 6 3 10 8 10 11 0 2 -4 4 -10 4 -5 0 -10
-5 -10 -11z"/>
<path d="M1506 2808 c3 -5 10 -6 15 -3 13 9 11 12 -6 12 -8 0 -12 -4 -9 -9z"/>
<path d="M2591 2794 c0 -11 3 -14 6 -6 3 7 2 16 -1 19 -3 4 -6 -2 -5 -13z"/>
<path d="M1108 2723 c7 -3 16 -2 19 1 4 3 -2 6 -13 5 -11 0 -14 -3 -6 -6z"/>
<path d="M1548 2723 c6 -2 18 -2 25 0 6 3 1 5 -13 5 -14 0 -19 -2 -12 -5z"/>
<path d="M1285 2611 c-6 -11 13 -26 22 -17 4 3 1 6 -6 6 -7 0 -9 5 -6 10 3 6
4 10 1 10 -3 0 -7 -4 -11 -9z"/>
<path d="M1466 2546 c3 -9 13 -16 22 -16 8 0 13 1 11 3 -2 1 -12 9 -22 16 -15
12 -17 12 -11 -3z"/>
<path d="M1165 2540 c-3 -5 -1 -10 4 -10 6 0 11 5 11 10 0 6 -2 10 -4 10 -3 0
-8 -4 -11 -10z"/>
<path d="M1080 2521 c0 -6 4 -13 10 -16 6 -3 7 1 4 9 -7 18 -14 21 -14 7z"/>
<path d="M1788 2523 c7 -3 16 -2 19 1 4 3 -2 6 -13 5 -11 0 -14 -3 -6 -6z"/>
<path d="M1271 2484 c0 -11 3 -14 6 -6 3 7 2 16 -1 19 -3 4 -6 -2 -5 -13z"/>
<path d="M1483 2465 c0 -8 4 -12 9 -9 5 3 6 10 3 15 -9 13 -12 11 -12 -6z"/>
<path d="M1191 2384 c0 -11 3 -14 6 -6 3 7 2 16 -1 19 -3 4 -6 -2 -5 -13z"/>
<path d="M1650 2396 c0 -2 7 -7 16 -10 8 -3 12 -2 9 4 -6 10 -25 14 -25 6z"/>
<path d="M1405 2350 c3 -5 8 -10 11 -10 2 0 4 5 4 10 0 6 -5 10 -11 10 -5 0
-7 -4 -4 -10z"/>
<path d="M1221 2244 c0 -11 3 -14 6 -6 3 7 2 16 -1 19 -3 4 -6 -2 -5 -13z"/>
<path d="M2820 2116 c0 -2 7 -7 16 -10 8 -3 12 -2 9 4 -6 10 -25 14 -25 6z"/>
<path d="M2875 2050 c3 -5 8 -10 11 -10 2 0 4 5 4 10 0 6 -5 10 -11 10 -5 0
-7 -4 -4 -10z"/>
<path d="M1006 2003 c-6 -14 -5 -15 5 -6 7 7 10 15 7 18 -3 3 -9 -2 -12 -12z"/>
<path d="M2953 1470 c-21 -25 -26 -27 -60 -19 -62 14 -81 11 -115 -20 -31 -28
-32 -31 -16 -47 16 -17 19 -17 36 -1 19 18 82 24 82 8 0 -13 -104 -106 -192
-171 -82 -62 -255 -154 -355 -190 -54 -19 -63 -26 -63 -47 0 -22 3 -24 29 -18
27 6 30 3 55 -51 15 -31 34 -63 44 -70 25 -20 66 -17 96 7 31 24 29 25 49 -23
15 -36 17 -37 46 -27 l31 11 -16 36 c-79 187 -85 205 -72 213 7 5 18 9 23 9 6
0 37 -47 69 -105 33 -58 65 -105 71 -105 6 0 20 6 30 14 17 13 15 19 -45 122
l-63 108 28 21 c16 11 67 49 113 83 60 45 87 61 95 53 7 -7 5 -16 -7 -30 -9
-10 -18 -28 -19 -40 -1 -13 -8 -21 -20 -21 -23 0 -58 -18 -74 -39 -36 -47 14
-144 80 -156 35 -7 82 7 110 32 16 15 16 18 1 34 -15 16 -19 17 -37 4 -31 -21
-60 -18 -85 8 -44 47 -12 90 34 46 l24 -23 21 21 c20 19 20 22 5 45 -17 26
-13 58 8 58 6 0 34 -29 61 -64 48 -61 51 -63 72 -48 13 8 23 19 23 24 0 5 -36
54 -81 109 -78 97 -80 101 -63 120 9 10 20 19 24 19 4 0 49 -39 99 -86 l92
-87 24 23 23 22 -94 86 c-52 48 -94 92 -94 98 0 6 9 19 20 29 19 17 19 19 4
37 -22 23 -25 23 -51 -12z m-473 -496 c38 -88 -25 -120 -67 -34 -28 57 -28 56
5 68 41 16 41 15 62 -34z"/>
<path d="M800 1474 c-11 -12 -10 -18 3 -32 16 -15 18 -15 34 0 13 14 14 20 3
32 -7 9 -16 16 -20 16 -4 0 -13 -7 -20 -16z"/>
<path d="M845 1420 c-16 -18 -16 -20 11 -44 27 -23 28 -26 13 -41 -14 -14 -21
-15 -39 -5 -18 10 -24 9 -35 -7 -11 -15 -11 -21 2 -35 18 -20 14 -47 -10 -62
-15 -9 -23 -5 -49 23 l-30 33 -21 -20 -20 -21 35 -35 c43 -43 82 -55 118 -34
22 13 30 13 45 2 16 -12 15 -16 -18 -55 l-36 -42 25 -19 24 -20 48 54 c117
131 120 134 139 121 10 -7 55 -35 101 -63 45 -28 82 -53 82 -56 0 -2 -14 -30
-32 -61 l-32 -56 -18 43 c-20 46 -17 60 6 41 12 -10 17 -8 25 8 17 30 14 37
-20 51 -51 21 -91 15 -121 -20 -55 -61 -20 -153 62 -166 38 -6 38 -7 24 -29
-13 -21 -13 -24 10 -39 14 -9 27 -16 30 -16 2 0 32 49 66 110 57 102 63 109
83 99 17 -9 23 -8 34 7 7 10 13 20 13 23 0 3 -47 30 -104 59 -57 30 -145 84
-195 122 -86 65 -92 68 -102 48 -8 -15 -7 -24 5 -37 14 -16 13 -20 -18 -50
l-33 -32 -34 33 -34 33 25 3 c36 5 70 41 70 72 0 29 -30 74 -60 90 -13 7 -22
5 -35 -10z m285 -437 c0 -10 -6 -10 -25 -1 -30 14 -43 52 -24 74 12 15 16 12
31 -22 10 -22 18 -45 18 -51z"/>
<path d="M1950 1061 c0 -24 3 -28 24 -24 17 4 31 -3 50 -24 l26 -28 -114 -3
c-131 -3 -271 15 -396 52 -78 23 -86 24 -97 9 -17 -23 -16 -31 5 -37 9 -3 43
-12 75 -21 67 -19 78 -37 13 -22 -58 13 -94 3 -102 -28 -4 -15 -1 -32 6 -41
11 -12 10 -17 -7 -29 -46 -32 -32 -110 25 -139 45 -23 103 -31 113 -15 15 23
10 39 -11 39 -40 0 -90 28 -90 50 0 25 21 34 56 26 19 -5 24 -12 22 -28 -2
-16 4 -23 24 -29 15 -4 29 -4 32 -1 8 7 8 46 0 67 -8 19 -55 45 -82 45 -20 0
-37 25 -23 34 4 3 34 -2 66 -10 62 -16 74 -11 75 29 0 11 8 17 25 17 30 0 30
-3 10 -125 -21 -130 -21 -135 15 -135 17 0 30 2 30 5 0 9 30 199 35 221 4 17
10 20 30 16 22 -4 25 -9 25 -46 0 -23 -5 -47 -12 -54 -9 -9 -8 -21 2 -52 11
-34 17 -40 42 -40 23 0 28 4 28 25 0 22 4 25 37 25 l37 0 -47 -48 c-52 -53
-56 -62 -28 -62 10 0 30 17 45 40 14 22 28 40 31 40 3 0 2 -20 -2 -45 l-6 -45
36 0 36 0 3 128 c3 121 4 127 24 130 24 3 28 -11 40 -171 5 -71 9 -87 21 -83
8 3 22 6 31 6 16 0 16 10 7 126 l-11 125 28 6 c21 4 28 11 28 29 0 21 -5 24
-35 24 -19 0 -35 4 -35 8 0 5 -17 27 -38 50 -34 36 -45 42 -80 42 -40 0 -42
-2 -42 -29z m-12 -141 c7 0 12 -15 12 -41 l0 -40 -37 3 c-33 3 -38 7 -41 31
-5 43 5 60 31 53 12 -3 28 -6 35 -6z"/>
<path d="M1000 873 c0 -4 7 -15 16 -25 13 -14 15 -25 8 -48 l-9 -31 -47 30
c-26 17 -50 26 -53 22 -3 -5 14 -21 37 -35 77 -46 73 -40 49 -79 -25 -41 -45
-51 -72 -37 -37 20 -9 55 38 45 27 -6 27 -6 8 10 -31 26 -75 47 -75 36 0 -5 5
-13 11 -16 7 -5 5 -13 -6 -25 -23 -25 -10 -59 26 -72 23 -8 27 -13 18 -24 -6
-7 -9 -19 -7 -26 3 -7 26 20 51 59 l47 73 55 -27 c52 -25 67 -44 46 -57 -5 -3
-24 0 -42 8 -22 9 -40 11 -51 5 -20 -11 -31 -57 -22 -93 9 -36 27 -33 19 4
-13 60 16 86 66 60 18 -10 18 -12 -6 -60 -39 -76 -11 -59 31 19 l37 69 51 -19
c63 -25 66 -27 66 -43 0 -29 -26 -38 -66 -21 -44 18 -62 8 -44 -26 11 -20 13
-20 22 -6 12 22 48 5 48 -23 0 -21 28 -40 60 -40 17 0 19 -3 10 -19 -12 -24
-13 -41 -1 -41 4 0 21 34 36 75 29 81 32 83 98 64 26 -7 37 -15 37 -29 0 -21
-15 -27 -25 -10 -11 18 -44 10 -60 -14 -24 -37 -3 -76 41 -76 17 0 20 -5 16
-25 -2 -14 0 -25 6 -25 6 0 13 18 17 39 3 22 15 47 26 57 18 16 21 16 36 2 14
-15 14 -18 -11 -41 -15 -14 -23 -28 -18 -31 13 -8 49 20 55 43 7 28 -21 64
-44 58 -14 -4 -19 0 -19 14 0 22 3 23 70 7 l52 -12 -7 -40 c-16 -102 -17 -126
-7 -126 5 0 15 39 22 86 9 65 15 84 26 80 8 -3 14 -1 14 4 0 6 -4 10 -10 10
-5 0 -19 18 -30 40 -20 39 -56 68 -68 54 -4 -4 -1 -9 7 -12 34 -12 69 -72 42
-72 -5 0 -56 11 -113 24 -126 30 -210 61 -350 128 l-108 52 0 37 c0 47 -14 84
-34 92 -9 4 -16 3 -16 0z m344 -279 c20 -8 20 -27 1 -64 -18 -35 -58 -41 -74
-11 -9 15 -6 22 14 35 14 9 25 23 25 31 0 16 9 19 34 9z m125 -98 c16 -20 3
-46 -24 -46 -13 0 -26 7 -29 16 -7 19 10 44 29 44 7 0 18 -6 24 -14z"/>
<path d="M2885 809 c-49 -33 -125 -78 -167 -100 -43 -22 -78 -44 -78 -49 0 -6
7 -27 15 -47 8 -20 14 -37 13 -38 -2 0 -15 -6 -31 -13 -26 -11 -28 -10 -43 27
-17 44 -37 57 -57 37 -7 -7 -24 -13 -38 -12 -19 1 -24 6 -24 26 0 22 5 25 39
28 21 2 52 -2 68 -9 16 -6 31 -9 35 -5 10 9 -63 36 -100 36 -49 0 -71 -20 -64
-57 5 -25 2 -32 -18 -41 -21 -10 -23 -15 -15 -43 11 -39 6 -49 -25 -49 -18 0
-22 4 -18 20 6 22 -12 50 -31 50 -7 0 -21 -7 -32 -16 -18 -15 -18 -15 9 -9 33
7 50 -21 24 -40 -24 -17 -21 -25 7 -25 29 0 39 -12 30 -34 -9 -23 -44 -20 -71
6 -33 30 -39 17 -7 -15 15 -15 37 -27 49 -27 27 0 60 34 52 54 -5 12 11 26 28
26 2 0 6 -18 10 -40 4 -22 11 -40 16 -40 12 0 11 13 -7 82 -16 64 -14 88 9 88
8 0 23 -30 37 -75 13 -41 27 -75 32 -75 13 0 9 26 -16 95 -25 68 -19 90 15 59
22 -20 38 -12 20 10 -8 9 -8 16 -2 21 6 3 17 -11 26 -31 12 -30 13 -39 3 -46
-10 -6 -8 -12 6 -23 26 -20 36 -19 36 3 0 11 11 24 25 30 33 15 31 17 45 -18
7 -16 16 -30 21 -30 13 0 12 4 -21 82 -29 67 -29 71 -13 84 23 17 28 17 42 0
7 -8 9 -25 6 -39 -5 -19 -2 -28 13 -36 30 -16 45 -14 70 9 l21 20 14 -26 c8
-15 17 -22 20 -17 4 6 -10 40 -30 77 -32 61 -34 70 -20 83 13 14 19 9 52 -43
20 -31 39 -63 42 -71 6 -15 23 -18 23 -4 0 6 -19 40 -41 76 -23 36 -40 67 -38
68 2 1 26 17 52 36 39 27 51 31 62 21 23 -19 18 -33 -20 -59 -39 -26 -41 -44
-6 -49 18 -3 22 0 17 15 -4 12 1 23 16 32 20 13 24 11 53 -23 49 -58 48 -30
-1 37 -28 40 -42 67 -38 79 3 10 2 18 -3 18 -4 0 -48 -28 -98 -61z m-75 -169
c0 -20 -33 -44 -52 -38 -6 2 -12 17 -13 34 -1 16 -5 36 -9 45 -5 11 0 19 16
26 20 9 25 6 41 -19 9 -16 17 -37 17 -48z"/>
<path d="M977 843 c-3 -4 6 -16 19 -26 13 -10 24 -14 24 -9 0 14 -37 44 -43
35z"/>
<path d="M2140 529 c-30 -5 -138 -10 -239 -10 -111 -1 -178 -5 -170 -10 8 -5
38 -9 67 -9 49 0 52 -2 52 -25 0 -18 -7 -26 -25 -31 -31 -8 -32 -22 -2 -26 16
-2 23 -11 25 -31 7 -58 -67 -44 -89 17 -14 39 -34 50 -24 14 8 -29 36 -68 56
-81 9 -6 28 -7 42 -3 32 8 46 49 28 79 -9 14 -10 22 -2 30 6 6 11 21 11 34 0
22 4 23 65 23 58 0 65 -2 65 -20 0 -14 -7 -20 -21 -20 -36 0 -59 -19 -59 -50
0 -36 23 -60 60 -60 16 0 30 -7 34 -15 3 -8 13 -15 22 -15 13 0 14 3 5 14 -7
8 -11 27 -9 42 4 35 -19 43 -32 10 -11 -29 -19 -32 -44 -13 -11 8 -17 23 -14
38 2 19 10 25 38 29 29 4 36 10 38 33 3 23 8 27 37 27 40 0 53 -24 29 -51 -16
-18 -16 -20 2 -40 15 -16 27 -20 56 -16 35 5 38 3 38 -19 0 -13 5 -24 11 -24
7 0 9 26 4 85 -5 60 -4 85 4 85 6 0 11 5 11 10 0 6 -3 9 -7 9 -5 -1 -33 -5
-63 -10z m30 -64 c0 -34 -5 -47 -19 -55 -29 -15 -54 -2 -46 24 4 11 7 33 7 49
-1 23 3 27 28 27 29 0 30 -2 30 -45z"/>
</g>
</svg>
